<?xml version="1.0" encoding="UTF-8"?>
<svg version="1.1" xmlns="http://www.w3.org/2000/svg" width="64" height="64">
<path d="M0 0 C21.12 0 42.24 0 64 0 C64 21.12 64 42.24 64 64 C42.88 64 21.76 64 0 64 C0 42.88 0 21.76 0 0 Z " fill="#FEFEFE" transform="translate(0,0)"/>
<path d="M0 0 C1.98 0 3.96 0 6 0 C6.495 6.93 6.495 6.93 7 14 C9.97 11.03 12.94 8.06 16 5 C17.32 5.66 18.64 6.32 20 7 C20 10 20 10 18.03125 12.26171875 C15.6875 14.5078125 13.34375 16.75390625 11 19 C15.95 19.33 20.9 19.66 26 20 C26 21.98 26 23.96 26 26 C21.38 26.33 16.76 26.66 12 27 C14.97 29.97 17.94 32.94 21 36 C20.34 37.32 19.68 38.64 19 40 C15 40 15 40 12.859375 38.25 C10.90625 36.16666667 8.953125 34.08333333 7 32 C6.67 36.62 6.34 41.24 6 46 C4.02 46 2.04 46 0 46 C-0.33 41.05 -0.66 36.1 -1 31 C-4.3 34.3 -7.6 37.6 -11 41 C-12.32 40.01 -13.64 39.02 -15 38 C-12.94544813 33.30981088 -9.6565945 30.52116507 -6 27 C-12.93 26.505 -12.93 26.505 -20 26 C-20 24.02 -20 22.04 -20 20 C-15.05 20 -10.1 20 -5 20 C-6.093125 18.72125 -7.18625 17.4425 -8.3125 16.125 C-8.92738281 15.40570313 -9.54226562 14.68640625 -10.17578125 13.9453125 C-12.0412324 11.80820669 -12.0412324 11.80820669 -15 10 C-14.1875 8.0625 -14.1875 8.0625 -13 6 C-12.01 5.67 -11.02 5.34 -10 5 C-9.60167969 5.48210938 -9.20335937 5.96421875 -8.79296875 6.4609375 C-8.26316406 7.09257812 -7.73335937 7.72421875 -7.1875 8.375 C-6.40439453 9.31472656 -6.40439453 9.31472656 -5.60546875 10.2734375 C-3.91774261 12.2221048 -3.91774261 12.2221048 -1 14 C-0.67 9.38 -0.34 4.76 0 0 Z " fill="#131313" transform="translate(29,9)"/>
</svg>
